<?xml version="1.0" encoding="utf-8"?>
<!-- Generator: Adobe Illustrator 19.2.1, SVG Export Plug-In . SVG Version: 6.00 Build 0)  -->
<svg version="1.1" id="Слой_1" xmlns="http://www.w3.org/2000/svg" xmlns:xlink="http://www.w3.org/1999/xlink" x="0px" y="0px"
	 viewBox="0 0 20.6 17.1" style="enable-background:new 0 0 20.6 17.1;" xml:space="preserve">
<style type="text/css">
	.st0{fill:#FFFFFF;}
</style>
<path class="st0" d="M20.6,14.6c0-0.5-0.4-0.9-0.9-0.9H0.9c-0.5,0-0.9,0.4-0.9,0.9v1.7c0,0.5,0.4,0.9,0.9,0.9h18.9
	c0.5,0,0.9-0.4,0.9-0.9V14.6z M20.6,7.7c0-0.5-0.4-0.9-0.9-0.9H0.9C0.4,6.9,0,7.2,0,7.7v1.7c0,0.5,0.4,0.9,0.9,0.9h18.9
	c0.5,0,0.9-0.4,0.9-0.9V7.7z M20.6,0.9c0-0.5-0.4-0.9-0.9-0.9H0.9C0.4,0,0,0.4,0,0.9v1.7C0,3,0.4,3.4,0.9,3.4h18.9
	c0.5,0,0.9-0.4,0.9-0.9V0.9z"/>
</svg>
