<?xml version="1.0" encoding="utf-8"?>
<!-- Generator: Adobe Illustrator 19.2.1, SVG Export Plug-In . SVG Version: 6.00 Build 0)  -->
<svg version="1.1" id="Слой_1" xmlns="http://www.w3.org/2000/svg" xmlns:xlink="http://www.w3.org/1999/xlink" x="0px" y="0px"
	 viewBox="0 0 108.7 82.6" style="enable-background:new 0 0 108.7 82.6;" xml:space="preserve">
<style type="text/css">
	.st0{fill:#010202;}
	.st1{fill:#BE1823;}
</style>
<g>
	<g>
		<g>
			<g>
				<path class="st0" d="M14.1,48h3.4v9c0,3.5-1.5,4.7-3.8,4.7c-2,0-3.4-0.9-3.8-3.2H2.5c0.6,6.5,4.3,10.2,11,10.2
					c7.3,0,11.1-4.5,11.1-12.3V41H14.1V48z"/>
			</g>
			<g>
				<path class="st0" d="M13.4,18.8c-7.3,0-11,4.5-11,12.3l0,0.5h7.3v-1c0-3.5,1.5-4.8,3.8-4.8c2.4,0,3.8,1.3,3.8,4.8v5.2h7v-4.7
					C24.5,23.3,20.7,18.8,13.4,18.8z"/>
			</g>
		</g>
		<g>
			<g>
				<rect x="2.4" y="33" transform="matrix(-1 -4.084700e-011 4.084700e-011 -1 12.237 66.8603)" width="7.3" height="0.9"/>
			</g>
		</g>
		<g>
			<g>
				<polygon points="2.4,37.2 2.4,34.3 6.7,34.3 				"/>
			</g>
		</g>
		<g>
			<g>
				<polygon class="st1" points="9.8,35.3 2.4,40.2 2.4,43.1 9.8,38.4 				"/>
			</g>
		</g>
		<g>
			<g>
				<polygon points="9.8,41.2 9.8,44.5 2.4,49.6 2.4,46.2 				"/>
			</g>
		</g>
		<g>
			<g>
				<polygon class="st1" points="9.8,47.5 2.5,52.2 2.5,55.3 9.8,50.6 				"/>
			</g>
		</g>
		<g>
			<g>
				<path d="M9.8,53.6v2.5l-4,0.1C5.8,56.2,9.6,53.8,9.8,53.6z"/>
			</g>
		</g>
		<g>
			<g>
				<polygon points="9.8,57.5 2.5,57.5 2.5,56.4 9.8,56.4 				"/>
			</g>
		</g>
	</g>
	<g>
		<path class="st0" d="M44.9,68.9c-0.4-1.3-0.7-2.1-0.7-6.2v-7.9c0-4.7-1.5-6.4-4.9-6.4h-2.6v20.5h-7.5V18.6h11.4
			c7.8,0,11.1,3.8,11.1,11.6v4c0,5.2-1.6,8.6-4.9,10.2c3.8,1.7,5,5.5,5,10.7v7.8c0,2.4,0.1,4.2,0.8,6.1H44.9z M36.7,25.8v15.5h2.9
			c2.8,0,4.5-1.3,4.5-5.3v-5c0-3.6-1.2-5.2-3.8-5.2H36.7z"/>
	</g>
	<g>
		<path class="st0" d="M64.2,39.8h10.1V47H64.2v14.7H77v7.2H56.8V18.6H77v7.2H64.2V39.8z"/>
	</g>
	<g>
		<path class="st0" d="M91.4,48.8l-2.3,4.6v15.5h-7.5V18.5h7.5v21.9l9.8-21.9h7.5L95.9,40.9l10.4,27.9h-7.7L91.4,48.8z"/>
	</g>
	<g>
		<rect y="74" width="108.7" height="0.3"/>
	</g>
	<g>
		<rect y="75.3" width="108.7" height="0.8"/>
	</g>
	<g>
		<rect y="12.9" width="34.8" height="0.3"/>
		<rect x="73.1" y="12.9" width="35.5" height="0.3"/>
	</g>
	<g>
		<rect y="11.1" width="34.8" height="0.8"/>
		<rect x="73.1" y="11.1" width="35.5" height="0.8"/>
	</g>
	<g>
		<g>
			<path class="st0" d="M42.8,11.2l-0.3,0.9L42,13.2h-0.2l-0.4-1.1L41,11.2h0v3.1h-0.5V9.8H41l0.5,1.4l0.4,1.1h0l0.4-1.1l0.5-1.4
				h0.5v4.5h-0.5L42.8,11.2L42.8,11.2z"/>
		</g>
		<g>
			<path class="st0" d="M46.9,14.3V9.8h0.5v4.5H46.9z"/>
		</g>
		<g>
			<path class="st0" d="M52.8,13.1c0,0.2,0,0.4-0.1,0.5c0,0.2-0.1,0.3-0.2,0.4c-0.1,0.1-0.2,0.2-0.3,0.3c-0.1,0.1-0.3,0.1-0.5,0.1
				c-0.2,0-0.3,0-0.5-0.1c-0.1-0.1-0.2-0.1-0.3-0.2c-0.1-0.1-0.1-0.2-0.2-0.3c0-0.1-0.1-0.3-0.1-0.4l0.5-0.1c0,0.1,0,0.2,0,0.2
				c0,0.1,0,0.1,0.1,0.2c0,0.1,0.1,0.1,0.2,0.1c0.1,0,0.2,0.1,0.3,0.1c0.1,0,0.2,0,0.3-0.1c0.1,0,0.1-0.1,0.2-0.2
				c0-0.1,0.1-0.2,0.1-0.2c0-0.1,0-0.2,0-0.3c0-0.1,0-0.2,0-0.3c0-0.1,0-0.2-0.1-0.2c0-0.1-0.1-0.1-0.2-0.2c-0.1,0-0.2-0.1-0.3-0.2
				c-0.2-0.1-0.4-0.2-0.5-0.3s-0.2-0.2-0.3-0.3c-0.1-0.1-0.1-0.2-0.1-0.3c0-0.1,0-0.2,0-0.4c0-0.2,0-0.3,0.1-0.5
				c0-0.1,0.1-0.3,0.2-0.4c0.1-0.1,0.2-0.2,0.3-0.2c0.1-0.1,0.3-0.1,0.4-0.1c0.2,0,0.3,0,0.5,0.1c0.1,0.1,0.2,0.1,0.3,0.2
				c0.1,0.1,0.1,0.2,0.2,0.3c0,0.1,0,0.2,0,0.3l-0.5,0.1c0-0.2,0-0.4-0.1-0.5c-0.1-0.1-0.2-0.2-0.4-0.2c-0.1,0-0.2,0-0.3,0.1
				c-0.1,0-0.1,0.1-0.2,0.2c0,0.1-0.1,0.1-0.1,0.2c0,0.1,0,0.2,0,0.2c0,0.1,0,0.2,0,0.2c0,0.1,0,0.1,0.1,0.2c0,0.1,0.1,0.1,0.2,0.2
				c0.1,0.1,0.2,0.1,0.4,0.2c0.2,0.1,0.3,0.2,0.4,0.2c0.1,0.1,0.2,0.2,0.3,0.3c0.1,0.1,0.1,0.2,0.1,0.3
				C52.8,12.8,52.8,12.9,52.8,13.1z"/>
		</g>
		<g>
			<path class="st0" d="M57.2,10.3v4h-0.5v-4h-0.7V9.8h1.9v0.5H57.2z"/>
		</g>
		<g>
			<path class="st0" d="M61.1,14.3V9.8h1.8v0.5h-1.4v1.5h1.2v0.5h-1.2v1.6h1.4v0.5H61.1z"/>
		</g>
		<g>
			<path class="st0" d="M67.8,14.3l-0.6-2h-0.5v2h-0.5V9.8h0.9c0.3,0,0.6,0.1,0.8,0.3c0.2,0.2,0.2,0.5,0.2,1c0,0.3,0,0.5-0.1,0.7
				c-0.1,0.2-0.2,0.3-0.4,0.5l0.7,2.1H67.8z M67.7,11.1c0-0.1,0-0.2,0-0.3c0-0.1,0-0.2-0.1-0.3c0-0.1-0.1-0.1-0.2-0.2
				c-0.1,0-0.2-0.1-0.3-0.1h-0.4v1.6h0.4c0.1,0,0.2,0,0.3-0.1c0.1,0,0.1-0.1,0.2-0.2c0-0.1,0.1-0.1,0.1-0.2
				C67.7,11.3,67.7,11.2,67.7,11.1z"/>
		</g>
	</g>
	<g>
		<g>
			<path d="M49.4,7.3c0-0.1,0-0.1-0.1-0.1c0,0-0.1,0-0.1,0c-0.6,0-1.2,0-1.8,0c0-0.2-0.2-0.4-0.4-0.5c-0.2-0.1-0.5-0.1-0.7-0.1
				c-1.6,0-3.2,0-4.9,0c-0.2,0-0.3,0-0.5,0c-0.4,0.1-0.4,0.7-0.3,1.1c0.1,0.2,0.2,0.2,0.3,0.2c2.7,0,5.3,0,8,0c0.1,0,0.1,0,0.2,0
				C49.4,7.9,49.4,7.6,49.4,7.3z M49.3,7.5c0,0.2,0,0.4-0.4,0.3V7.3C48.9,7.3,49.3,7.2,49.3,7.5z"/>
		</g>
		<g>
			<path d="M59.4,7.9c0.1,0,0.1,0,0.2,0c2.7,0,5.3,0,8,0c0.2,0,0.3-0.1,0.3-0.2C68,7.3,68,6.8,67.6,6.6c-0.1,0-0.3,0-0.5,0
				c-1.6,0-3.2,0-4.9,0c-0.2,0-0.5,0-0.7,0.1c-0.2,0.1-0.4,0.3-0.4,0.5c-0.6,0-1.2,0-1.8,0c0,0-0.1,0-0.1,0c0,0-0.1,0.1-0.1,0.1
				C59.1,7.6,59.1,7.9,59.4,7.9z M59.7,7.3v0.5c-0.4,0-0.4-0.1-0.4-0.3C59.2,7.2,59.7,7.3,59.7,7.3z"/>
		</g>
		<g>
			<path d="M54.2,6.1C54,6,52.7,5.3,52.7,5.3s-2.2,1.3-2.6,1.5c-0.3,0.2-0.7,0.4-0.7,0.7c0,0.3,0.1,0.4,0.2,0.5
				c0.4,0.4,2-0.5,2.2-0.6C52.1,7.3,54.2,6.1,54.2,6.1z M50.3,7.4c0,0.1-0.1,0.2-0.2,0.2c-0.1,0-0.2-0.1-0.2-0.2
				c0-0.1,0.1-0.2,0.2-0.2C50.2,7.2,50.3,7.3,50.3,7.4z M53.1,6c0,0.1-0.1,0.2-0.2,0.2c-0.1,0-0.2-0.1-0.2-0.2
				c0-0.1,0.1-0.2,0.2-0.2C53,5.7,53.1,5.8,53.1,6z"/>
		</g>
		<g>
			<path d="M58.4,6.8c-0.5-0.3-1-0.5-1.5-0.8c-0.9-0.5-1.8-1.1-2.7-1.7c-0.2-0.1-1.5-1-1.8-1.2c-0.4-0.3-0.8-0.6-1.2-1
				c-0.5-0.4-1.1-0.9-1.5-1.4c-0.2-0.3-0.5-0.6-0.9-0.7c-0.5-0.2-1,0.2-1.1,0.7s0.2,0.7,0.2,0.8c0.1,0.1,0.3,0.3,0.4,0.4
				c0.7,0.5,1.4,1.1,2,1.6C51.1,4,51.8,4.6,52.6,5c1.5,1,3.1,1.8,4.7,2.7C58,8.1,58.8,8.2,59,7.8C59.3,7.3,58.7,7,58.4,6.8z
				 M48.8,0.8c0,0.2-0.1,0.3-0.3,0.3c-0.2,0-0.3-0.1-0.3-0.3c0-0.2,0.1-0.3,0.3-0.3C48.6,0.5,48.8,0.6,48.8,0.8z M55.8,5.9
				c0,0.1-0.1,0.3-0.3,0.3c-0.1,0-0.3-0.1-0.3-0.3c0-0.1,0.1-0.3,0.3-0.3C55.7,5.7,55.8,5.8,55.8,5.9z M58.7,7.4
				c0,0.1-0.1,0.3-0.3,0.3c-0.1,0-0.3-0.1-0.3-0.3c0-0.1,0.1-0.3,0.3-0.3C58.6,7.1,58.7,7.2,58.7,7.4z"/>
		</g>
		<g>
			<path d="M60.6,0.5c-0.3-0.4-0.9-0.6-1.4-0.1c-0.5,0.5-4.5,3.7-4.9,4l1.4,0.9c0,0,1.9-1.3,2.5-1.7c0.6-0.4,2.3-1.8,2.5-2.1
				C60.8,1.2,60.9,0.9,60.6,0.5z M60.1,0.9c0,0.1-0.1,0.2-0.2,0.2c-0.1,0-0.2-0.1-0.2-0.2c0-0.1,0.1-0.2,0.2-0.2
				C60,0.7,60.1,0.8,60.1,0.9z"/>
		</g>
		<g>
			<path d="M55.5,6.8l0.1,0.1c0,0-0.8,0.7-1,0.7C54.5,7.6,55.5,6.8,55.5,6.8z"/>
		</g>
		<g>
			<path d="M52.9,6.9l-0.1,0.1c0,0,0.8,0.7,1,0.7C53.9,7.7,52.9,6.9,52.9,6.9z"/>
		</g>
	</g>
</g>
</svg>
