<?xml version="1.0" encoding="utf-8"?>
<!-- Generator: Adobe Illustrator 19.2.1, SVG Export Plug-In . SVG Version: 6.00 Build 0)  -->
<svg version="1.1" id="Слой_1" xmlns="http://www.w3.org/2000/svg" xmlns:xlink="http://www.w3.org/1999/xlink" x="0px" y="0px"
	 viewBox="0 0 486.8 78.1" style="enable-background:new 0 0 486.8 78.1;" xml:space="preserve">
<style type="text/css">
	.st0{fill:#055198;}
	.st1{fill:#F7A608;}
	.st2{fill:#035698;}
	.st3{fill:#FFFFFF;}
	.st4{fill:#F8AB16;}
	.st5{fill:#FAB522;}
	.st6{fill:#E40C21;}
	.st7{fill:none;stroke:#FFFFFF;stroke-width:0.215;}
</style>
<g>
	<g>
		<polygon class="st0" points="51.4,63.7 58.8,20.3 70.6,20.3 63.2,63.7 		"/>
		<path class="st0" d="M106,21.4c-2.3-0.9-6-1.8-10.5-1.8c-11.7,0-19.9,5.9-19.9,14.3c-0.1,6.2,5.9,9.7,10.4,11.8
			c4.6,2.2,6.1,3.5,6.1,5.4c0,2.9-3.7,4.2-7.1,4.2c-4.7,0-7.2-0.7-11.1-2.2l-1.7-0.7L70.6,62c2.7,1.2,7.9,2.2,13.2,2.3
			c12.5,0,20.5-5.8,20.6-14.8c0.1-4.9-3.1-8.7-9.9-11.8c-4.2-2-6.6-3.3-6.6-5.4c0-1.8,2.2-3.7,6.7-3.7c3.9-0.1,6.6,0.7,8.8,1.7
			l1.1,0.5L106,21.4"/>
		<path class="st0" d="M136.3,20.4h-9.1c-2.8,0-5,0.7-6.2,3.6l-17.5,39.7h12.4c0,0,2-5.3,2.5-6.5c1.3,0,13.4,0,15.1,0
			c0.3,1.5,1.4,6.5,1.4,6.5h11L136.3,20.4 M121.8,48.3c1-2.5,4.7-12.1,4.7-12.1c-0.1,0.1,1-2.5,1.6-4.2l0.8,3.7
			c0,0,2.2,10.4,2.7,12.5H121.8z"/>
		<path class="st0" d="M41.5,20.3L29.9,49.9l-1.2-6c-2.1-6.9-8.8-14.4-16.3-18.2l10.5,37.9h12.5l18.6-43.3H41.5"/>
		<path class="st1" d="M19.2,20.3h-19L0,21.3c14.9,3.6,24.7,12.3,28.7,22.7L24.6,24C23.8,21.3,21.8,20.4,19.2,20.3"/>
	</g>
</g>
<g>
	<polygon class="st2" points="383,7.9 383,72.8 486.8,72.8 486.8,7.9 	"/>
	<polygon class="st3" points="485.5,9.1 485.5,71.6 384.2,71.6 384.2,9.1 	"/>
	<polygon class="st2" points="482.3,68.9 482.3,12.2 387.2,12.2 387.2,68.9 	"/>
	<path class="st4" d="M413.3,46.4c10.1-4.3,24.2-8.3,43-4.3l0.2-4.8c-19.7-2.2-33.9,4.2-43.1,8.6L413.3,46.4L413.3,46.4z"/>
	<polygon class="st3" points="395,49.9 404.6,49.9 404.6,52.7 398.7,52.7 398.7,55.4 404.5,55.4 404.5,58.1 398.6,58.1 398.7,60.8 
		404.5,60.8 404.5,63.7 395,63.7 	"/>
	<polygon class="st3" points="407,48.8 410.4,48.8 410.4,63.7 407,63.7 	"/>
	<path class="st3" d="M422.3,62.5c-1.2,1-2.9,1.5-4.5,1.5c-3.7,0-5.3-2.6-5.3-5.2c0-3,2.3-5.6,5.4-5.6c3.8,0,5,2.7,5,6.2H416
		c0,0.8,0.5,2.1,2.4,2.1c1.2,0,1.9-0.3,2.8-1L422.3,62.5L422.3,62.5z M419.8,57.4c0-1.1-0.5-1.9-1.7-1.9c-1.1,0-1.9,1-2.2,1.9H419.8
		L419.8,57.4z"/>
	<path class="st3" d="M433.4,62.9c-0.9,0.6-2.6,1.1-3.7,1.1c-3.2,0-5.5-1.8-5.5-5.1c0-3.4,2.3-5.6,5.7-5.6c1.2,0,2.6,0.4,3.4,0.9
		l-1.1,2.3c-0.5-0.2-1.1-0.4-1.6-0.4c-1.7,0-2.9,1.1-2.9,2.7c0,1.4,1.1,2.6,2.6,2.6c0.7,0,1.3-0.3,1.9-0.6L433.4,62.9L433.4,62.9z"
		/>
	<path class="st3" d="M434.6,53.6h1.6v-3.4h3.3l-0.1,3.4h2.8l-0.1,2.5h-2.8c0,1.4-0.1,2.9-0.1,3.7c0,0.9,0.2,1.3,1,1.3
		c0.5,0,0.9-0.2,1.3-0.5l0.8,2.3c-1,0.6-2.2,1-3.4,1c-2.8,0-2.9-1.8-2.9-4c0-1.2,0.1-2.4,0.1-3.8h-1.5L434.6,53.6L434.6,53.6z"/>
	<path class="st3" d="M444.1,53.6h3.4V55h0.1c0.5-0.8,1.2-1.7,2.6-1.7c0.4,0,0.8,0.1,1.1,0.1l-0.4,3.4c-0.3-0.1-0.7-0.2-1.2-0.2
		c-1.2,0-2.1,1-2.1,1.2l-0.1,5.8H444L444.1,53.6L444.1,53.6z"/>
	<path class="st3" d="M457.5,53.3c3.7,0,5.6,2.3,5.6,5.4c0,3-1.9,5.4-5.6,5.4c-3.7,0-5.6-2.3-5.6-5.4S453.8,53.3,457.5,53.3
		L457.5,53.3z M457.5,61.4c1.7,0,2.2-1.4,2.2-2.7c0-1.3-0.5-2.7-2.2-2.7c-1.7,0-2.2,1.4-2.2,2.7C455.3,60,455.8,61.4,457.5,61.4
		L457.5,61.4z"/>
	<path class="st3" d="M465,53.6h3.4v1.1c0.8-0.8,2-1.4,3.2-1.4c2.1,0,3.3,1.2,3.3,3.9c0,2.1,0,4.3-0.1,6.4h-3.4
		c0-1.9,0.1-3.9,0.1-5.9c0-0.8-0.2-1.4-1.3-1.4c-0.6,0-1.3,0.5-1.8,0.9v6.5h-3.5L465,53.6L465,53.6z"/>
	<polygon class="st3" points="423.5,33 427.9,18.6 431.8,18.6 427.4,33 	"/>
	<path class="st3" d="M421.8,18.6l-3.5,6.1c-0.9,1.6-1.4,2.4-1.7,3.4h-0.1c0.1-1.3-0.1-2.8-0.1-3.7l-0.4-5.8h-6.6l-0.1,0.3
		c1.7,0,2.7,0.8,2.9,2.6l1.3,11.4h4l8.2-14.4L421.8,18.6L421.8,18.6z"/>
	<path class="st3" d="M452.1,33l-0.1-2.2h-4.9l-1,2.2h-4.2l7.7-14.4h5.2L456,33H452.1L452.1,33z M451.6,24.5c-0.1-1.1-0.1-2.5,0-3.4
		h-0.1c-0.2,0.7-1.3,2.9-1.7,3.9l-1.4,3.2h3.4L451.6,24.5L451.6,24.5z"/>
	<path class="st3" d="M435.9,33.4c-2.8,0-4.6-0.9-5.9-1.7l1.8-2.8c1.2,0.7,2.1,1.4,4.2,1.4c0.7,0,1.3-0.2,1.7-0.8
		c0.6-0.9-0.1-1.4-1.7-2.3l-0.7-0.4c-2.3-1.6-3.2-3-2.2-5.5c0.7-1.6,2.5-2.9,5.4-2.9c2.1,0,3.9,0.9,5,1.7l-2.1,2.5
		c-1.1-0.9-2-1.3-3-1.3c-0.8,0-1.4,0.3-1.7,0.7c-0.4,0.8,0.1,1.3,1.3,2.1l0.9,0.6c2.7,1.7,3.4,3.5,2.7,5.2
		C440.6,32.8,438.3,33.4,435.9,33.4L435.9,33.4z"/>
</g>
<g>
	<polygon class="st5" points="289.9,78.1 291.9,78 293.9,77.9 295.8,77.6 297.8,77.3 299.7,76.9 301.5,76.3 303.3,75.7 305.1,75 
		306.9,74.2 308.5,73.4 310.2,72.4 311.8,71.4 313.3,70.3 314.8,69.2 316.2,67.9 317.6,66.6 318.9,65.3 320.1,63.9 321.3,62.4 
		322.3,60.8 323.4,59.2 324.3,57.6 325.1,55.9 326,54.2 326.6,52.4 327.3,50.6 327.8,48.7 328.2,46.9 328.6,44.9 328.8,43 329,41 
		329,39 329,37 328.8,35 328.6,33 328.2,31.1 327.8,29.2 327.3,27.4 326.6,25.6 326,23.8 325.1,22.1 324.3,20.4 323.4,18.8 
		322.3,17.2 321.3,15.7 320.1,14.2 318.9,12.8 317.6,11.4 316.2,10.1 314.8,8.9 313.3,7.8 311.8,6.7 310.2,5.7 308.5,4.7 306.9,3.9 
		305.1,3.1 303.3,2.4 301.5,1.8 299.7,1.2 297.8,0.8 295.8,0.4 293.9,0.2 291.9,0.1 289.9,0 287.9,0.1 285.9,0.2 284,0.4 282,0.8 
		280.2,1.2 278.3,1.8 276.5,2.4 274.7,3.1 273,3.9 271.3,4.7 269.7,5.7 268.1,6.7 266.6,7.8 265.1,8.9 263.7,10.1 262.3,11.4 
		261,12.8 259.8,14.2 258.7,15.7 257.6,17.2 256.6,18.8 255.6,20.4 254.8,22.1 254,23.8 253.3,25.6 252.7,27.4 252.1,29.2 
		251.7,31.1 251.4,33 251.1,35 251,37 250.9,39 251,41 251.1,43 251.4,44.9 251.7,46.9 252.1,48.7 252.7,50.6 253.3,52.4 254,54.2 
		254.8,55.9 255.6,57.6 256.6,59.2 257.6,60.8 258.7,62.4 259.8,63.9 261,65.3 262.3,66.6 263.7,67.9 265.1,69.2 266.6,70.3 
		268.1,71.4 269.7,72.4 271.3,73.4 273,74.2 274.7,75 276.5,75.7 278.3,76.3 280.2,76.9 282,77.3 284,77.6 285.9,77.9 287.9,78 	"/>
	<polygon class="st6" points="237.7,78.1 239.7,78 241.7,77.9 243.6,77.6 245.5,77.3 247.4,76.9 249.3,76.3 251.1,75.7 252.9,75 
		254.6,74.2 256.2,73.4 257.9,72.4 259.5,71.4 261,70.3 262.5,69.2 263.9,67.9 265.2,66.6 266.5,65.3 267.8,63.9 268.9,62.4 
		270,60.8 271,59.2 271.9,57.6 272.8,55.9 273.6,54.2 274.3,52.4 274.9,50.6 275.4,48.7 275.9,46.9 276.2,44.9 276.4,43 276.6,41 
		276.6,39 276.6,37 276.4,35 276.2,33 275.9,31.1 275.4,29.2 274.9,27.4 274.3,25.6 273.6,23.8 272.8,22.1 271.9,20.4 271,18.8 
		270,17.2 268.9,15.7 267.8,14.2 266.5,12.8 265.2,11.4 263.9,10.1 262.5,8.9 261,7.8 259.5,6.7 257.9,5.7 256.2,4.7 254.6,3.9 
		252.9,3.1 251.1,2.4 249.3,1.8 247.4,1.2 245.5,0.8 243.6,0.4 241.7,0.2 239.7,0.1 237.7,0 235.6,0.1 233.7,0.2 231.7,0.4 
		229.8,0.8 227.9,1.2 226,1.8 224.2,2.4 222.4,3.1 220.7,3.9 219,4.7 217.4,5.7 215.8,6.7 214.3,7.8 212.8,8.9 211.4,10.1 210,11.4 
		208.7,12.8 207.5,14.2 206.3,15.7 205.2,17.2 204.2,18.8 203.3,20.4 202.4,22.1 201.6,23.8 200.9,25.6 200.3,27.4 199.8,29.2 
		199.3,31.1 199,33 198.8,35 198.6,37 198.6,39 198.6,41 198.8,43 199,44.9 199.3,46.9 199.8,48.7 200.3,50.6 200.9,52.4 
		201.6,54.2 202.4,55.9 203.3,57.6 204.2,59.2 205.2,60.8 206.3,62.4 207.5,63.9 208.7,65.3 210,66.6 211.4,67.9 212.8,69.2 
		214.3,70.3 215.8,71.4 217.4,72.4 219,73.4 220.7,74.2 222.4,75 224.2,75.7 226,76.3 227.9,76.9 229.8,77.3 231.7,77.6 233.7,77.9 
		235.6,78 	"/>
	<polygon class="st5" points="259.2,15 280,15 280,12.9 261,12.9 	"/>
	<polygon class="st5" points="256.1,19.7 280,19.7 280,17.6 257.4,17.6 	"/>
	<polygon class="st5" points="253.8,24.4 280,24.4 280,22.3 254.7,22.3 	"/>
	<polygon class="st5" points="252.2,29.1 280,29.1 280,27 252.9,27 	"/>
	<polygon class="st5" points="253.1,51.9 280,51.9 280,49.8 252.5,49.8 	"/>
	<polygon class="st5" points="255.1,56.6 280,56.6 280,54.5 254.1,54.5 	"/>
	<polygon class="st5" points="257.9,61.3 280,61.3 280,59.2 256.6,59.2 	"/>
	<polygon class="st5" points="261.8,66 280,66 280,63.9 259.9,63.9 	"/>
	<polygon class="st5" points="251.3,33.8 280,33.8 280,31.7 251.7,31.7 	"/>
	<polygon class="st5" points="268.8,47.2 279.7,47.2 279.7,45.1 269.1,45.1 	"/>
	<polygon class="st5" points="269.6,42.5 279.7,42.5 279.7,40.4 270,40.4 	"/>
	<polygon class="st5" points="250.5,40.4 253.4,40.4 253.4,42.5 250.7,42.5 	"/>
	<polygon class="st3" points="245.2,37.8 245.1,37.8 244.9,37.8 244.7,37.7 244.5,37.7 244.4,37.7 244.2,37.6 244,37.6 243.8,37.6 
		243.6,37.6 243.4,37.6 243.2,37.5 242.9,37.5 242.7,37.5 242.4,37.5 242,37.6 241.6,37.6 241.4,37.6 241.1,37.7 240.9,37.8 
		240.7,37.8 240.5,37.9 240.3,38 240.2,38.2 240.1,38.3 240,38.4 240,38.6 239.9,38.7 239.9,38.9 240,39.1 240,39.2 240.1,39.4 
		240.3,39.6 240.5,39.8 240.8,40 241.2,40.2 241.6,40.3 242,40.5 242.5,40.6 242.9,40.8 243.3,40.9 243.7,41.2 244.1,41.4 
		244.4,41.8 244.7,42.2 244.9,42.7 245,43.3 245.1,44 245,44.8 244.9,45.4 244.8,46 244.6,46.5 244.3,46.9 244,47.3 243.7,47.6 
		243.3,47.9 242.9,48.1 242.5,48.3 242,48.5 241.6,48.7 241.1,48.7 240.7,48.8 240.2,48.9 239.8,48.9 239.4,48.9 238.8,48.9 
		238.3,48.9 237.8,48.9 237.4,48.9 237,48.9 236.7,48.8 236.3,48.8 236,48.8 235.8,48.7 235.5,48.7 235.3,48.7 235,48.6 234.8,48.5 
		234.6,48.5 234.4,48.4 234.2,48.3 234.8,45.4 234.9,45.4 235,45.5 235.2,45.5 235.4,45.6 235.7,45.6 235.9,45.7 236.2,45.7 
		236.5,45.8 236.9,45.8 237.2,45.9 237.6,45.9 237.9,46 238.3,46 238.7,46 239.1,46 239.5,46 239.8,45.9 240.1,45.8 240.4,45.7 
		240.6,45.5 240.7,45.3 240.8,45.1 240.9,44.9 240.9,44.7 241,44.3 240.8,44 240.6,43.7 240.3,43.5 239.9,43.3 239.4,43.1 
		238.9,42.9 238.4,42.7 237.9,42.5 237.4,42.2 236.9,41.8 236.5,41.4 236.2,40.9 235.9,40.3 235.8,39.6 235.8,38.8 235.9,38.3 
		236,37.8 236.1,37.3 236.3,36.9 236.5,36.5 236.7,36.2 237,35.8 237.3,35.5 237.7,35.3 238.1,35.1 238.6,34.9 239.1,34.7 
		239.7,34.6 240.3,34.5 241.1,34.5 241.8,34.5 242.3,34.5 242.8,34.5 243.2,34.5 243.6,34.5 243.9,34.5 244.2,34.6 244.4,34.6 
		244.7,34.6 244.9,34.6 245.1,34.7 245.3,34.7 245.4,34.7 245.6,34.8 245.7,34.8 245.8,34.8 245.9,34.8 	"/>
	<g>
		<g>
			<polyline class="st7" points="245.2,37.8 245.2,37.8 245.1,37.8 244.9,37.8 244.7,37.7 244.5,37.7 244.4,37.7 244.2,37.6 
				244,37.6 243.8,37.6 243.6,37.6 243.4,37.6 243.2,37.5 242.9,37.5 242.7,37.5 242.4,37.5 242,37.6 241.6,37.6 241.6,37.6 
				241.4,37.6 241.1,37.7 240.9,37.8 240.7,37.8 240.5,37.9 240.3,38 240.2,38.2 240.1,38.3 240,38.4 240,38.6 239.9,38.7 
				239.9,38.9 240,39.1 240,39.2 240.1,39.4 240.3,39.6 240.3,39.6 240.5,39.8 240.8,40 241.2,40.2 241.6,40.3 242,40.5 242.5,40.6 
				242.9,40.8 243.3,40.9 243.7,41.2 244.1,41.4 244.4,41.8 244.7,42.2 244.9,42.7 245,43.3 245.1,44 245,44.8 245,44.8 244.9,45.4 
				244.8,46 244.6,46.5 244.3,46.9 244,47.3 243.7,47.6 243.3,47.9 242.9,48.1 242.5,48.3 242,48.5 241.6,48.7 241.1,48.7 
				240.7,48.8 240.2,48.9 239.8,48.9 239.4,48.9 239.4,48.9 238.8,48.9 238.3,48.9 237.8,48.9 237.4,48.9 237,48.9 236.7,48.8 
				236.3,48.8 236,48.8 235.8,48.7 235.5,48.7 235.3,48.7 235,48.6 234.8,48.5 234.6,48.5 234.4,48.4 234.2,48.3 234.8,45.4 
				234.8,45.4 234.9,45.4 235,45.5 235.2,45.5 235.4,45.6 235.7,45.6 235.9,45.7 236.2,45.7 236.5,45.8 236.9,45.8 237.2,45.9 
				237.6,45.9 237.9,46 238.3,46 238.7,46 239.1,46 239.5,46 239.5,46 239.8,45.9 240.1,45.8 240.4,45.7 240.6,45.5 240.7,45.3 
				240.8,45.1 240.9,44.9 240.9,44.7 240.9,44.7 241,44.3 240.8,44 240.6,43.7 240.3,43.5 239.9,43.3 239.4,43.1 238.9,42.9 
				238.4,42.7 237.9,42.5 237.4,42.2 236.9,41.8 236.5,41.4 236.2,40.9 235.9,40.3 235.8,39.6 235.8,38.8 235.8,38.8 235.9,38.3 
				236,37.8 236.1,37.3 236.3,36.9 236.5,36.5 236.7,36.2 237,35.8 237.3,35.5 237.7,35.3 238.1,35.1 238.6,34.9 239.1,34.7 
				239.7,34.6 240.3,34.5 241.1,34.5 241.8,34.5 241.8,34.5 242.3,34.5 242.8,34.5 243.2,34.5 243.6,34.5 243.9,34.5 244.2,34.6 
				244.4,34.6 244.7,34.6 244.9,34.6 245.1,34.7 245.3,34.7 245.4,34.7 245.6,34.8 245.7,34.8 245.8,34.8 245.9,34.8 245.2,37.8 			
				"/>
		</g>
	</g>
	<polygon class="st3" points="248.3,31.6 252,31.6 251.5,34.7 253.6,34.7 253.2,37.7 250.9,37.6 249.6,45 249.6,45.3 249.7,45.5 
		249.8,45.7 250,45.8 250.2,45.9 250.5,46 250.7,46 251.1,46.1 251.3,46 251.6,46 251.9,46 252.1,45.9 252.2,45.9 252.3,45.8 
		252.4,45.8 252.5,45.8 252,48.2 251.9,48.3 251.8,48.4 251.7,48.4 251.6,48.5 251.5,48.5 251.4,48.5 251.3,48.6 251.2,48.6 
		251.1,48.7 250.9,48.7 250.8,48.7 250.6,48.7 250.4,48.8 250.2,48.8 250,48.8 249.8,48.8 248.8,48.8 248.3,48.8 247.8,48.7 
		247.4,48.7 247,48.6 246.7,48.5 246.5,48.3 246.3,48.2 246.1,48 246,47.8 245.9,47.6 245.8,47.4 245.8,47.1 245.7,46.8 245.7,46.6 
		245.8,46.3 245.8,45.9 	"/>
	<g>
		<g>
			<polyline class="st7" points="248.3,31.6 252,31.6 251.5,34.7 253.6,34.7 253.2,37.7 250.9,37.6 249.6,45 249.6,45 249.6,45.3 
				249.7,45.5 249.8,45.7 250,45.8 250.2,45.9 250.5,46 250.7,46 251.1,46.1 251.1,46.1 251.3,46 251.6,46 251.9,46 252.1,45.9 
				252.2,45.9 252.3,45.8 252.4,45.8 252.5,45.8 252,48.2 252,48.2 251.9,48.3 251.8,48.4 251.7,48.4 251.6,48.5 251.5,48.5 
				251.4,48.5 251.3,48.6 251.2,48.6 251.1,48.7 250.9,48.7 250.8,48.7 250.6,48.7 250.4,48.8 250.2,48.8 250,48.8 249.8,48.8 
				248.8,48.8 248.8,48.8 248.3,48.8 247.8,48.7 247.4,48.7 247,48.6 246.7,48.5 246.5,48.3 246.3,48.2 246.1,48 246,47.8 
				245.9,47.6 245.8,47.4 245.8,47.1 245.7,46.8 245.7,46.6 245.8,46.3 245.8,45.9 248.3,31.6 			"/>
		</g>
	</g>
	<polygon class="st3" points="256.6,42.7 256.5,42.9 256.5,43.1 256.5,43.4 256.6,43.6 256.7,43.9 256.8,44.1 256.9,44.4 
		257.1,44.6 257.3,44.8 257.5,45 257.7,45.2 257.9,45.4 258.2,45.5 258.4,45.7 258.7,45.7 259,45.8 259.3,45.8 259.6,45.9 260,45.9 
		260.3,45.9 260.7,46 261,46 261.3,45.9 261.7,45.9 262.1,45.9 262.4,45.8 262.8,45.7 263.1,45.6 263.5,45.5 263.9,45.3 264.3,45.1 
		264.6,44.9 264.1,48.1 263.9,48.2 263.7,48.3 263.5,48.4 263.3,48.5 263.1,48.5 262.9,48.6 262.7,48.7 262.4,48.7 262.2,48.7 
		261.9,48.8 261.7,48.8 261.4,48.8 261,48.8 260.7,48.8 260.3,48.8 259.8,48.8 259.2,48.8 258.5,48.8 257.9,48.7 257.2,48.5 
		256.6,48.3 255.9,48.1 255.3,47.7 254.8,47.4 254.3,46.9 253.8,46.4 253.4,45.8 253.1,45.1 252.9,44.3 252.8,43.4 252.7,42.4 
		252.8,41.4 252.8,40.9 252.9,40.4 253,39.9 253.2,39.4 253.4,38.8 253.6,38.2 253.9,37.7 254.3,37.1 254.7,36.6 255.2,36.1 
		255.8,35.6 256.4,35.2 257.2,34.9 258.1,34.7 259,34.5 260.1,34.5 260.6,34.5 261.1,34.5 261.7,34.6 262.2,34.8 262.7,35 
		263.3,35.2 263.7,35.5 264.2,35.9 264.6,36.3 264.9,36.9 265.2,37.5 265.3,38.2 265.4,38.9 265.5,39.8 265.4,40.8 265.2,41.9 
		265.1,42.7 255.5,42.7 256.1,40.2 261.9,40.2 261.9,39.8 261.9,39.5 261.9,39.2 261.8,39 261.7,38.7 261.6,38.5 261.5,38.3 
		261.4,38.1 261.2,37.9 261,37.8 260.8,37.7 260.6,37.6 260.4,37.5 260.2,37.5 260,37.4 259.8,37.4 259.5,37.4 259.3,37.4 259,37.5 
		258.8,37.6 258.6,37.7 258.4,37.8 258.2,37.9 258,38.1 257.9,38.3 257.7,38.5 257.6,38.7 257.4,38.9 257.3,39.2 257.2,39.4 
		257.1,39.7 257.1,39.9 	"/>
	<g>
		<g>
			<polyline class="st7" points="256.6,42.7 256.6,42.7 256.5,42.9 256.5,43.1 256.5,43.4 256.6,43.6 256.7,43.9 256.8,44.1 
				256.9,44.4 257.1,44.6 257.3,44.8 257.5,45 257.7,45.2 257.9,45.4 258.2,45.5 258.4,45.7 258.7,45.7 259,45.8 259,45.8 
				259.3,45.8 259.6,45.9 260,45.9 260.3,45.9 260.7,46 261,46 261.3,45.9 261.7,45.9 262.1,45.9 262.4,45.8 262.8,45.7 263.1,45.6 
				263.5,45.5 263.9,45.3 264.3,45.1 264.6,44.9 264.1,48.1 264.1,48.1 263.9,48.2 263.7,48.3 263.5,48.4 263.3,48.5 263.1,48.5 
				262.9,48.6 262.7,48.7 262.4,48.7 262.2,48.7 261.9,48.8 261.7,48.8 261.4,48.8 261,48.8 260.7,48.8 260.3,48.8 259.8,48.8 
				259.8,48.8 259.2,48.8 258.5,48.8 257.9,48.7 257.2,48.5 256.6,48.3 255.9,48.1 255.3,47.7 254.8,47.4 254.3,46.9 253.8,46.4 
				253.4,45.8 253.1,45.1 252.9,44.3 252.8,43.4 252.7,42.4 252.8,41.4 252.8,41.4 252.8,40.9 252.9,40.4 253,39.9 253.2,39.4 
				253.4,38.8 253.6,38.2 253.9,37.7 254.3,37.1 254.7,36.6 255.2,36.1 255.8,35.6 256.4,35.2 257.2,34.9 258.1,34.7 259,34.5 
				260.1,34.5 260.1,34.5 260.6,34.5 261.1,34.5 261.7,34.6 262.2,34.8 262.7,35 263.3,35.2 263.7,35.5 264.2,35.9 264.6,36.3 
				264.9,36.9 265.2,37.5 265.3,38.2 265.4,38.9 265.5,39.8 265.4,40.8 265.2,41.9 265.1,42.7 255.5,42.7 256.1,40.2 261.9,40.2 
				261.9,40.2 261.9,39.8 261.9,39.5 261.9,39.2 261.8,39 261.7,38.7 261.6,38.5 261.5,38.3 261.4,38.1 261.2,37.9 261,37.8 
				260.8,37.7 260.6,37.6 260.4,37.5 260.2,37.5 260,37.4 259.8,37.4 259.8,37.4 259.5,37.4 259.3,37.4 259,37.5 258.8,37.6 
				258.6,37.7 258.4,37.8 258.2,37.9 258,38.1 257.9,38.3 257.7,38.5 257.6,38.7 257.4,38.9 257.3,39.2 257.2,39.4 257.1,39.7 
				257.1,39.9 256.6,42.7 			"/>
		</g>
	</g>
	<polygon class="st3" points="288,35.5 287.8,35.4 287.6,35.4 287.5,35.3 287.2,35.2 287,35.1 286.8,35 286.6,34.9 286.4,34.9 
		286.1,34.8 285.9,34.7 285.6,34.7 285.3,34.6 285,34.6 284.7,34.6 284.4,34.6 284.1,34.6 283.7,34.6 283.4,34.6 283,34.7 
		282.7,34.7 282.3,34.8 281.9,35 281.6,35.2 281.2,35.4 280.8,35.7 280.5,36 280.2,36.5 279.9,36.9 279.6,37.5 279.3,38.2 279,38.9 
		278.8,39.8 278.7,40.2 278.7,40.7 278.7,41.2 278.7,41.6 278.7,42.1 278.8,42.5 278.9,42.9 279.1,43.3 279.3,43.6 279.5,44 
		279.8,44.3 280.1,44.5 280.5,44.8 280.9,45 281.3,45.1 281.8,45.3 282,45.3 282.2,45.3 282.4,45.4 282.7,45.4 283,45.4 283.3,45.4 
		283.6,45.4 283.9,45.4 284.3,45.4 284.6,45.3 284.9,45.2 285.3,45.1 285.6,44.9 285.9,44.8 286.2,44.6 286.4,44.3 285.9,47.9 
		285.8,47.9 285.7,48 285.6,48.1 285.5,48.2 285.3,48.3 285.1,48.4 284.9,48.5 284.7,48.5 284.4,48.6 284,48.7 283.7,48.7 
		283.2,48.8 282.7,48.8 282.1,48.8 281.4,48.8 280.7,48.8 280.1,48.7 279.5,48.6 278.9,48.4 278.2,48.1 277.7,47.8 277.1,47.4 
		276.6,47 276.1,46.4 275.7,45.8 275.3,45.2 275,44.4 274.8,43.6 274.6,42.7 274.5,41.8 274.6,40.8 274.7,39.7 274.8,39.2 
		274.9,38.6 275.1,38.1 275.2,37.6 275.3,37.2 275.5,36.7 275.7,36.3 275.9,35.9 276.1,35.4 276.3,35.1 276.5,34.7 276.7,34.4 
		277,34 277.2,33.7 277.5,33.4 277.8,33.1 278.1,32.9 278.4,32.6 278.7,32.4 279,32.2 279.4,32 279.7,31.8 280.1,31.7 280.5,31.5 
		280.9,31.4 281.3,31.3 281.7,31.2 282.2,31.1 282.6,31.1 283.1,31 283.6,31 284.1,31 284.5,31 284.9,31 285.3,31 285.7,31.1 
		286.1,31.2 286.4,31.2 286.8,31.3 287.1,31.4 287.4,31.4 287.6,31.5 287.9,31.6 288.1,31.7 288.3,31.8 288.4,31.8 288.5,31.9 
		288.6,31.9 	"/>
	<g>
		<g>
			<polyline class="st7" points="288,35.5 288,35.5 287.8,35.4 287.6,35.4 287.5,35.3 287.2,35.2 287,35.1 286.8,35 286.6,34.9 
				286.4,34.9 286.1,34.8 285.9,34.7 285.6,34.7 285.3,34.6 285,34.6 284.7,34.6 284.4,34.6 284.1,34.6 284.1,34.6 283.7,34.6 
				283.4,34.6 283,34.7 282.7,34.7 282.3,34.8 281.9,35 281.6,35.2 281.2,35.4 280.8,35.7 280.5,36 280.2,36.5 279.9,36.9 
				279.6,37.5 279.3,38.2 279,38.9 278.8,39.8 278.8,39.8 278.7,40.2 278.7,40.7 278.7,41.2 278.7,41.6 278.7,42.1 278.8,42.5 
				278.9,42.9 279.1,43.3 279.3,43.6 279.5,44 279.8,44.3 280.1,44.5 280.5,44.8 280.9,45 281.3,45.1 281.8,45.3 281.8,45.3 
				282,45.3 282.2,45.3 282.4,45.4 282.7,45.4 283,45.4 283.3,45.4 283.6,45.4 283.9,45.4 284.3,45.4 284.6,45.3 284.9,45.2 
				285.3,45.1 285.6,44.9 285.9,44.8 286.2,44.6 286.4,44.3 285.9,47.9 285.9,47.9 285.8,47.9 285.7,48 285.6,48.1 285.5,48.2 
				285.3,48.3 285.1,48.4 284.9,48.5 284.7,48.5 284.4,48.6 284,48.7 283.7,48.7 283.2,48.8 282.7,48.8 282.1,48.8 281.4,48.8 
				280.7,48.8 280.7,48.8 280.1,48.7 279.5,48.6 278.9,48.4 278.2,48.1 277.7,47.8 277.1,47.4 276.6,47 276.1,46.4 275.7,45.8 
				275.3,45.2 275,44.4 274.8,43.6 274.6,42.7 274.5,41.8 274.6,40.8 274.7,39.7 274.7,39.7 274.8,39.2 274.9,38.6 275.1,38.1 
				275.2,37.6 275.3,37.2 275.5,36.7 275.7,36.3 275.9,35.9 276.1,35.4 276.3,35.1 276.5,34.7 276.7,34.4 277,34 277.2,33.7 
				277.5,33.4 277.8,33.1 278.1,32.9 278.4,32.6 278.7,32.4 279,32.2 279.4,32 279.7,31.8 280.1,31.7 280.5,31.5 280.9,31.4 
				281.3,31.3 281.7,31.2 282.2,31.1 282.6,31.1 283.1,31 283.6,31 284.1,31 284.1,31 284.5,31 284.9,31 285.3,31 285.7,31.1 
				286.1,31.2 286.4,31.2 286.8,31.3 287.1,31.4 287.4,31.4 287.6,31.5 287.9,31.6 288.1,31.7 288.3,31.8 288.4,31.8 288.5,31.9 
				288.6,31.9 288,35.5 			"/>
		</g>
	</g>
	<polygon class="st3" points="320.4,48.8 316.8,48.8 317,47.4 317,47.2 316.8,47.5 316.6,47.8 316.4,48 316.1,48.1 315.9,48.3 
		315.7,48.5 315.4,48.6 315.2,48.7 314.9,48.8 314.7,48.9 314.4,48.9 314.1,49 313.9,49 313.6,49 313.4,49 313.1,49 312.4,49 
		311.8,48.8 311.2,48.6 310.7,48.3 310.2,47.9 309.8,47.5 309.4,47 309.1,46.4 308.8,45.9 308.6,45.2 308.5,44.6 308.4,43.9 
		308.3,43.2 308.4,42.6 308.4,41.9 308.5,41.2 308.7,40.4 309,39.7 309.3,39 309.6,38.4 309.9,37.8 310.3,37.3 310.7,36.8 
		311.2,36.4 311.6,36 312.1,35.7 312.6,35.4 313.1,35.2 313.6,35 314.2,34.8 314.7,34.8 315.2,34.7 315.6,34.8 316,34.8 316.3,34.9 
		316.6,35 316.9,35.1 317.2,35.2 317.5,35.3 317.7,35.5 317.9,35.6 318.1,35.8 318.3,36 318.4,36.1 318.6,36.3 318.7,36.5 
		318.8,36.6 318.9,36.8 318.9,36.8 319.8,31.6 323.4,31.6 	"/>
	<g>
		<g>
			<polyline class="st7" points="320.4,48.8 316.8,48.8 317,47.4 317,47.2 317,47.2 316.8,47.5 316.6,47.8 316.4,48 316.1,48.1 
				315.9,48.3 315.7,48.5 315.4,48.6 315.2,48.7 314.9,48.8 314.7,48.9 314.4,48.9 314.1,49 313.9,49 313.6,49 313.4,49 313.1,49 
				313.1,49 312.4,49 311.8,48.8 311.2,48.6 310.7,48.3 310.2,47.9 309.8,47.5 309.4,47 309.1,46.4 308.8,45.9 308.6,45.2 
				308.5,44.6 308.4,43.9 308.3,43.2 308.4,42.6 308.4,41.9 308.5,41.2 308.5,41.2 308.7,40.4 309,39.7 309.3,39 309.6,38.4 
				309.9,37.8 310.3,37.3 310.7,36.8 311.2,36.4 311.6,36 312.1,35.7 312.6,35.4 313.1,35.2 313.6,35 314.2,34.8 314.7,34.8 
				315.2,34.7 315.2,34.7 315.6,34.8 316,34.8 316.3,34.9 316.6,35 316.9,35.1 317.2,35.2 317.5,35.3 317.7,35.5 317.9,35.6 
				318.1,35.8 318.3,36 318.4,36.1 318.6,36.3 318.7,36.5 318.8,36.6 318.9,36.8 318.9,36.8 319.8,31.6 323.4,31.6 320.4,48.8 			
				"/>
		</g>
	</g>
	<polygon class="st5" points="314.4,45.7 314.8,45.6 315.1,45.5 315.5,45.5 315.8,45.3 316,45.2 316.3,45 316.6,44.7 316.8,44.5 
		317,44.2 317.2,44 317.3,43.6 317.5,43.3 317.6,43 317.7,42.7 317.8,42.3 317.9,41.9 317.9,41.6 318,41.2 318,40.8 318,40.5 
		317.9,40.1 317.9,39.8 317.8,39.5 317.7,39.2 317.5,38.9 317.4,38.7 317.2,38.4 317,38.3 316.8,38.1 316.6,38 316.3,37.9 316,37.9 
		315.7,37.9 315.3,38 315,38.1 314.7,38.2 314.5,38.4 314.2,38.6 314,38.8 313.8,39.1 313.6,39.4 313.4,39.7 313.2,40 313.1,40.3 
		312.9,40.7 312.8,41 312.7,41.4 312.6,41.8 312.6,42.4 312.6,43 312.7,43.7 312.9,44.3 313.1,44.8 313.5,45.3 313.9,45.5 	"/>
	<polygon class="st3" points="233.6,45.9 233,48.8 229.7,48.8 229.8,48.3 229.9,47.8 229.9,47.4 230,47.2 229.8,47.5 229.6,47.7 
		229.3,47.9 229.1,48.1 228.7,48.2 228.4,48.4 228.1,48.6 227.7,48.7 227.3,48.8 226.9,48.9 226.6,49 226.2,49 225.8,49.1 
		225.4,49.1 225,49 224.7,49 224.2,48.9 223.8,48.7 223.4,48.6 223.1,48.4 222.8,48.1 222.6,47.9 222.3,47.7 222.1,47.4 222,47.1 
		221.9,46.8 221.8,46.5 221.7,46.3 221.6,45.9 221.6,45.7 221.6,45.4 221.6,45.1 221.6,44.6 221.7,44.1 221.8,43.6 222,43.1 
		222.2,42.7 222.4,42.4 222.7,42 223,41.6 223.4,41.4 223.7,41.1 224.1,40.8 224.5,40.6 224.9,40.4 225.4,40.3 225.8,40.2 
		226.3,40.1 226.3,40.1 226.4,40.1 226.4,40.1 226.6,40.1 226.8,40 226.9,40 227.1,40 227.4,39.9 227.6,39.9 227.8,39.9 228,39.9 
		228.3,39.9 228.5,39.9 228.7,39.8 228.8,39.8 229,39.8 229.3,39.8 229.6,39.8 229.9,39.9 230.2,39.9 230.4,39.9 230.6,39.9 
		230.7,39.9 230.8,39.9 230.8,39.8 230.9,39.6 230.9,39.3 231,39 230.9,38.7 230.8,38.5 230.7,38.2 230.4,38 230.2,37.9 229.9,37.8 
		229.6,37.7 229.2,37.6 228.9,37.6 228.5,37.6 228.1,37.6 227.7,37.6 227.2,37.7 226.8,37.7 226.4,37.8 226,37.8 225.6,37.8 
		225.2,37.9 224.9,38 224.5,38 224.3,38.1 224,38.2 223.8,38.3 223.7,38.4 224.6,35.2 224.9,35.1 225.2,35 225.5,34.9 225.8,34.8 
		226.1,34.8 226.5,34.7 226.8,34.6 227.2,34.6 227.5,34.6 227.9,34.6 228.3,34.6 228.7,34.6 229.2,34.6 229.6,34.6 230.1,34.6 
		230.5,34.6 230.9,34.6 231.3,34.7 231.7,34.8 232.1,34.9 232.5,35.1 232.9,35.2 233.3,35.5 233.7,35.7 234,36 234.3,36.3 
		234.6,36.7 234.8,37.1 234.9,37.5 235,37.9 235,38.4 234.9,39 	"/>
	<g>
		<g>
			<polyline class="st7" points="233.6,45.9 233,48.8 229.7,48.8 229.7,48.8 229.8,48.3 229.9,47.8 229.9,47.4 230,47.2 230,47.2 
				229.8,47.5 229.6,47.7 229.3,47.9 229.1,48.1 228.7,48.2 228.4,48.4 228.1,48.6 227.7,48.7 227.3,48.8 226.9,48.9 226.6,49 
				226.2,49 225.8,49.1 225.4,49.1 225,49 224.7,49 224.7,49 224.2,48.9 223.8,48.7 223.4,48.6 223.1,48.4 222.8,48.1 222.6,47.9 
				222.3,47.7 222.1,47.4 222,47.1 221.9,46.8 221.8,46.5 221.7,46.3 221.6,45.9 221.6,45.7 221.6,45.4 221.6,45.1 221.6,45.1 
				221.6,44.6 221.7,44.1 221.8,43.6 222,43.1 222.2,42.7 222.4,42.4 222.7,42 223,41.6 223.4,41.4 223.7,41.1 224.1,40.8 
				224.5,40.6 224.9,40.4 225.4,40.3 225.8,40.2 226.3,40.1 226.3,40.1 226.3,40.1 226.4,40.1 226.4,40.1 226.6,40.1 226.8,40 
				226.9,40 227.1,40 227.4,39.9 227.6,39.9 227.8,39.9 228,39.9 228.3,39.9 228.5,39.9 228.7,39.8 228.8,39.8 229,39.8 229,39.8 
				229.3,39.8 229.6,39.8 229.9,39.9 230.2,39.9 230.4,39.9 230.6,39.9 230.7,39.9 230.8,39.9 230.8,39.9 230.8,39.8 230.9,39.6 
				230.9,39.3 231,39 231,39 230.9,38.7 230.8,38.5 230.7,38.2 230.4,38 230.2,37.9 229.9,37.8 229.6,37.7 229.2,37.6 229.2,37.6 
				228.9,37.6 228.5,37.6 228.1,37.6 227.7,37.6 227.2,37.7 226.8,37.7 226.4,37.8 226,37.8 225.6,37.8 225.2,37.9 224.9,38 
				224.5,38 224.3,38.1 224,38.2 223.8,38.3 223.7,38.4 224.6,35.2 224.6,35.2 224.9,35.1 225.2,35 225.5,34.9 225.8,34.8 
				226.1,34.8 226.5,34.7 226.8,34.6 227.2,34.6 227.5,34.6 227.9,34.6 228.3,34.6 228.7,34.6 229.2,34.6 229.6,34.6 230.1,34.6 
				230.5,34.6 230.5,34.6 230.9,34.6 231.3,34.7 231.7,34.8 232.1,34.9 232.5,35.1 232.9,35.2 233.3,35.5 233.7,35.7 234,36 
				234.3,36.3 234.6,36.7 234.8,37.1 234.9,37.5 235,37.9 235,38.4 234.9,39 233.6,45.9 			"/>
		</g>
	</g>
	<polygon class="st6" points="230.4,42.5 230.4,42.4 230.3,42.4 230.2,42.3 230.1,42.3 230,42.3 229.8,42.3 229.6,42.3 229.4,42.3 
		229.2,42.3 229,42.3 228.8,42.3 228.5,42.3 228.4,42.4 228.2,42.4 228,42.5 227.9,42.5 227.8,42.5 227.7,42.5 227.5,42.6 
		227.4,42.7 227.2,42.7 227,42.8 226.9,42.9 226.7,43 226.5,43.2 226.3,43.3 226.2,43.5 226,43.6 225.9,43.8 225.8,44 225.7,44.2 
		225.7,44.4 225.7,44.9 225.7,45.2 225.9,45.5 226,45.7 226.2,45.8 226.4,45.9 226.6,45.9 226.9,45.9 227.3,45.9 227.6,45.9 
		228,45.8 228.3,45.7 228.5,45.7 228.8,45.5 229,45.4 229.2,45.3 229.4,45.1 229.5,45 229.7,44.8 229.8,44.7 229.9,44.5 229.9,44.4 
		230,44.2 230.1,44.1 230.1,43.7 230.2,43.2 230.3,42.8 	"/>
	<polygon class="st3" points="205.9,48.8 202.3,48.8 205.2,31.6 211.5,31.6 212.1,41.8 216.4,31.6 222.9,31.6 219.8,48.8 
		216.3,48.8 218.5,35.9 218.4,35.9 213,48.8 209,48.8 208.9,48.3 208.9,46.9 208.7,44.8 208.6,42.5 208.5,40.1 208.4,38.1 
		208.3,36.6 208.2,35.9 208.2,35.9 208.1,35.9 208,35.9 208,35.9 	"/>
	<g>
		<g>
			<polyline class="st7" points="205.9,48.8 202.3,48.8 205.2,31.6 211.5,31.6 212.1,41.8 216.4,31.6 222.9,31.6 219.8,48.8 
				216.3,48.8 218.5,35.9 218.4,35.9 213,48.8 209,48.8 209,48.8 208.9,48.3 208.9,46.9 208.7,44.8 208.6,42.5 208.5,40.1 
				208.4,38.1 208.3,36.6 208.2,35.9 208.2,35.9 208.2,35.9 208.1,35.9 208,35.9 208,35.9 205.9,48.8 			"/>
		</g>
	</g>
	<polygon class="st3" points="298.9,45.9 298.4,48.8 295.1,48.8 295.1,48.3 295.1,47.8 295.1,47.5 295.1,47.3 295,47.5 294.8,47.7 
		294.5,47.9 294.3,48.1 294,48.3 293.7,48.4 293.4,48.6 293,48.7 292.7,48.8 292.3,48.9 291.9,49 291.6,49 291.2,49.1 290.8,49.1 
		290.5,49 290.1,49 289.6,48.9 289.2,48.7 288.8,48.6 288.5,48.4 288.2,48.1 287.9,47.9 287.7,47.7 287.6,47.4 287.4,47.1 
		287.3,46.8 287.2,46.5 287.1,46.3 287,45.9 287,45.7 287,45.4 287,45.1 287,44.6 287.1,44.1 287.2,43.6 287.4,43.1 287.6,42.7 
		287.8,42.4 288.1,42 288.4,41.6 288.7,41.4 289.1,41.1 289.5,40.8 289.9,40.6 290.3,40.4 290.7,40.3 291.2,40.2 291.6,40.1 
		291.7,40.1 291.7,40.1 291.8,40.1 292,40.1 292.1,40 292.3,40 292.5,40 292.7,39.9 292.9,39.9 293.2,39.9 293.4,39.9 293.6,39.9 
		293.8,39.9 294,39.8 294.2,39.8 294.3,39.8 294.7,39.8 295,39.8 295.3,39.9 295.6,39.9 295.8,39.9 296,39.9 296.1,39.9 296.2,39.9 
		296.2,39.8 296.3,39.6 296.3,39.3 296.3,39 296.3,38.7 296.2,38.5 296,38.2 295.8,38 295.6,37.9 295.3,37.8 295,37.7 294.7,37.6 
		294.3,37.6 293.9,37.6 293.5,37.6 293.1,37.6 292.6,37.7 292.2,37.7 291.8,37.8 291.4,37.8 291,37.8 290.6,37.9 290.3,38 290,38 
		289.7,38.1 289.4,38.2 289.3,38.3 289.1,38.4 290,35.2 290.3,35.1 290.6,35 290.9,34.9 291.2,34.8 291.6,34.8 291.9,34.7 
		292.2,34.6 292.6,34.6 293,34.6 293.4,34.6 293.7,34.6 294.1,34.6 294.5,34.6 295,34.6 295.4,34.6 295.9,34.6 296.2,34.6 
		296.6,34.7 297,34.8 297.5,34.9 297.9,35.1 298.3,35.2 298.7,35.5 299,35.7 299.4,36 299.7,36.3 299.9,36.7 300.1,37.1 300.3,37.5 
		300.4,37.9 300.4,38.4 300.3,39 	"/>
	<polygon class="st3" points="298.4,48.9 298.5,48.9 299,45.9 298.8,45.9 298.3,48.8 298.4,48.7 298.4,48.9 298.4,48.9 298.5,48.9 	
		"/>
	<polygon class="st3" points="295,48.8 295.1,48.9 298.4,48.9 298.4,48.7 295.1,48.7 295.2,48.8 295,48.8 295,48.9 295.1,48.9 	"/>
	<polygon class="st3" points="295.2,47.4 295.1,47.3 295,47.5 295,47.8 295,48.3 295,48.8 295.2,48.8 295.2,48.3 295.2,47.8 
		295.2,47.5 295.2,47.4 295.1,47.3 	"/>
	<polygon class="st3" points="290.1,49.1 290.1,49.1 290.5,49.1 290.8,49.1 291.2,49.1 291.6,49.1 292,49.1 292.3,49 292.7,48.9 
		293,48.8 293.4,48.7 293.7,48.5 294,48.3 294.3,48.1 294.6,48 294.8,47.8 295,47.6 295.2,47.4 295.1,47.3 294.9,47.5 294.7,47.6 
		294.5,47.8 294.2,48 294,48.2 293.6,48.3 293.3,48.5 293,48.6 292.6,48.7 292.3,48.8 291.9,48.9 291.6,48.9 291.2,49 290.8,49 
		290.5,48.9 290.1,48.9 290.1,48.9 	"/>
	<polygon class="st3" points="286.9,45.1 286.9,45.1 286.9,45.4 286.9,45.7 287,46 287,46.3 287.1,46.6 287.2,46.9 287.3,47.2 
		287.5,47.4 287.7,47.7 287.9,48 288.1,48.2 288.5,48.4 288.8,48.6 289.2,48.8 289.6,48.9 290.1,49.1 290.1,48.9 289.6,48.8 
		289.2,48.7 288.9,48.5 288.5,48.3 288.3,48.1 288,47.9 287.8,47.6 287.6,47.4 287.5,47.1 287.4,46.8 287.2,46.5 287.2,46.2 
		287.1,45.9 287.1,45.7 287.1,45.4 287.1,45.1 287.1,45.1 	"/>
	<polygon class="st3" points="291.6,40 291.6,40 291.2,40.1 290.7,40.2 290.3,40.4 289.9,40.5 289.4,40.8 289.1,41 288.7,41.3 
		288.4,41.6 288,41.9 287.8,42.3 287.5,42.7 287.3,43.1 287.1,43.6 287,44 286.9,44.6 286.9,45.1 287.1,45.1 287.1,44.6 287.2,44.1 
		287.3,43.6 287.5,43.2 287.7,42.8 287.9,42.4 288.2,42 288.5,41.7 288.8,41.4 289.2,41.1 289.5,40.9 289.9,40.7 290.3,40.5 
		290.8,40.4 291.2,40.2 291.6,40.2 291.6,40.2 	"/>
	<polygon class="st3" points="294.3,39.7 294.3,39.7 294.2,39.7 294,39.8 293.8,39.8 293.6,39.8 293.4,39.8 293.2,39.8 292.9,39.9 
		292.7,39.9 292.5,39.9 292.3,39.9 292.1,39.9 292,40 291.8,40 291.7,40 291.7,40 291.6,40 291.6,40.2 291.7,40.2 291.7,40.2 
		291.8,40.2 292,40.1 292.1,40.1 292.3,40.1 292.5,40.1 292.7,40 292.9,40 293.2,40 293.4,40 293.6,39.9 293.8,39.9 294,39.9 
		294.2,39.9 294.3,39.9 294.3,39.9 	"/>
	<polygon class="st3" points="296.1,39.9 296.2,39.8 296.1,39.8 296,39.8 295.8,39.8 295.6,39.8 295.3,39.8 295,39.8 294.7,39.7 
		294.3,39.7 294.3,39.9 294.7,39.9 295,39.9 295.3,39.9 295.6,39.9 295.8,39.9 296,39.9 296.1,40 296.2,40 296.3,39.9 296.2,40 
		296.3,40 296.3,39.9 	"/>
	<polygon class="st3" points="296.2,39 296.2,39 296.2,39.3 296.2,39.5 296.1,39.8 296.1,39.9 296.3,39.9 296.3,39.8 296.3,39.6 
		296.4,39.3 296.4,39 296.4,39 	"/>
	<polygon class="st3" points="294.7,37.7 294.7,37.8 295,37.8 295.3,37.8 295.5,38 295.8,38.1 295.9,38.3 296.1,38.5 296.2,38.8 
		296.2,39 296.4,39 296.4,38.7 296.2,38.4 296.1,38.2 295.8,38 295.6,37.8 295.3,37.7 295,37.6 294.7,37.6 294.7,37.6 	"/>
	<polygon class="st3" points="289,38.4 289.2,38.4 289.3,38.4 289.5,38.3 289.7,38.2 290,38.1 290.3,38.1 290.6,38 291,37.9 
		291.4,37.9 291.8,37.8 292.2,37.8 292.6,37.8 293.1,37.7 293.5,37.7 293.9,37.7 294.3,37.7 294.7,37.7 294.7,37.6 294.3,37.6 
		293.9,37.5 293.5,37.5 293.1,37.6 292.6,37.6 292.2,37.6 291.8,37.7 291.4,37.7 291,37.8 290.6,37.8 290.3,37.9 290,38 289.7,38 
		289.4,38.1 289.2,38.2 289.1,38.3 289.2,38.4 	"/>
	<polygon class="st3" points="290,35.1 290,35.2 289,38.4 289.2,38.4 290.1,35.2 290.1,35.3 290,35.1 290,35.1 290,35.2 	"/>
	<polygon class="st3" points="295.9,34.5 295.9,34.5 295.4,34.5 295,34.5 294.5,34.5 294.1,34.5 293.7,34.5 293.4,34.5 293,34.5 
		292.6,34.6 292.2,34.6 291.9,34.6 291.6,34.7 291.2,34.7 290.9,34.8 290.6,34.9 290.3,35 290,35.1 290.1,35.3 290.3,35.2 
		290.7,35.1 290.9,35 291.3,34.9 291.6,34.8 291.9,34.8 292.2,34.7 292.6,34.7 293,34.7 293.4,34.7 293.7,34.7 294.1,34.7 
		294.5,34.7 295,34.7 295.4,34.7 295.9,34.7 295.9,34.7 	"/>
	<polygon class="st3" points="300.4,39 300.4,39 300.5,38.4 300.5,37.9 300.4,37.5 300.2,37 300,36.6 299.7,36.3 299.4,35.9 
		299.1,35.7 298.7,35.4 298.3,35.2 297.9,35 297.5,34.8 297.1,34.7 296.7,34.6 296.2,34.6 295.9,34.5 295.9,34.7 296.2,34.7 
		296.6,34.8 297,34.9 297.4,35 297.8,35.1 298.2,35.3 298.6,35.5 299,35.8 299.3,36.1 299.6,36.4 299.9,36.7 300.1,37.1 300.2,37.5 
		300.3,37.9 300.3,38.4 300.2,39 300.2,39 	"/>
	<polygon class="st3" points="299,45.9 299,45.9 300.4,39 300.2,39 298.8,45.9 298.8,45.9 	"/>
	<polygon class="st5" points="295.7,42.5 295.7,42.4 295.7,42.3 295.6,42.3 295.4,42.3 295.3,42.3 295.1,42.2 294.9,42.2 
		294.7,42.3 294.5,42.3 294.3,42.3 294.1,42.3 293.9,42.4 293.7,42.4 293.5,42.4 293.4,42.5 293.2,42.5 293.1,42.5 293,42.5 
		292.9,42.6 292.7,42.6 292.6,42.7 292.4,42.8 292.2,42.9 292.1,43 291.9,43.1 291.7,43.3 291.6,43.4 291.4,43.6 291.3,43.8 
		291.2,44 291.1,44.2 291.1,44.4 291.1,44.9 291.1,45.2 291.3,45.5 291.4,45.7 291.6,45.8 291.8,45.9 292.1,45.9 292.3,45.9 
		292.7,45.9 293,45.9 293.4,45.8 293.7,45.7 294,45.6 294.2,45.5 294.5,45.4 294.7,45.2 294.9,45.1 295,44.9 295.2,44.7 295.3,44.6 
		295.4,44.4 295.4,44.2 295.5,44.1 295.5,43.9 295.6,43.6 295.7,43.2 295.7,42.8 	"/>
	<g>
		<g>
			<polygon class="st3" points="322.9,47 322.9,46.7 323,46.4 323.2,46.1 323.4,45.8 323.7,45.6 324,45.4 324.3,45.3 324.7,45.3 
				325.1,45.3 325.4,45.4 325.7,45.6 326,45.8 326.2,46.1 326.4,46.4 326.5,46.7 326.6,47 326.2,47 326.1,46.8 326.1,46.5 
				325.9,46.3 325.8,46 325.6,45.8 325.3,45.7 325,45.6 324.7,45.6 324.4,45.6 324.1,45.7 323.9,45.8 323.6,46 323.5,46.3 
				323.4,46.5 323.3,46.8 323.2,47 			"/>
			<polygon class="st3" points="324.1,47 324.1,46.3 324.8,46.3 324.9,46.3 325.1,46.3 325.2,46.3 325.3,46.4 325.3,46.5 
				325.4,46.5 325.4,46.6 325.4,46.7 325.4,46.8 325.4,46.9 325.4,47 325.3,47 324.8,47 324.8,47 324.9,47 325,47 325.1,47 
				325.1,46.9 325.1,46.9 325.2,46.8 325.2,46.7 325.1,46.7 325.1,46.6 325.1,46.6 325.1,46.6 325,46.5 324.9,46.5 324.9,46.5 
				324.8,46.5 324.4,46.5 324.4,47 			"/>
			<polygon class="st3" points="322.9,47 322.8,47.1 322.9,47.5 323,47.9 323.2,48.2 323.4,48.4 323.7,48.7 324,48.8 324.3,48.9 
				324.7,49 325.1,48.9 325.4,48.8 325.7,48.7 326,48.4 326.2,48.2 326.4,47.9 326.5,47.5 326.6,47.1 326.6,47 326.2,47 326.2,47.1 
				326.1,47.4 326.1,47.7 325.9,48 325.8,48.2 325.6,48.4 325.3,48.5 325,48.6 324.7,48.7 324.4,48.6 324.1,48.5 323.9,48.4 
				323.6,48.2 323.5,48 323.4,47.7 323.3,47.4 323.2,47.1 323.2,47 			"/>
			<polygon class="st3" points="324.1,47 324.1,47.9 324.4,47.9 324.4,47.2 324.7,47.2 325.1,47.9 325.4,47.9 325,47.2 325.1,47.2 
				325.1,47.2 325.2,47.1 325.3,47.1 325.3,47 324.8,47 324.7,47.1 324.4,47.1 324.4,47 			"/>
		</g>
	</g>
	<g>
		<g>
			<polyline class="st7" points="322.8,47.1 322.8,47.1 322.9,46.7 323,46.4 323.2,46.1 323.4,45.8 323.7,45.6 324,45.4 324.3,45.3 
				324.7,45.3 324.7,45.3 325.1,45.3 325.4,45.4 325.7,45.6 326,45.8 326.2,46.1 326.4,46.4 326.5,46.7 326.6,47.1 326.6,47.1 
				326.5,47.5 326.4,47.9 326.2,48.2 326,48.4 325.7,48.7 325.4,48.8 325.1,48.9 324.7,49 324.7,49 324.3,48.9 324,48.8 323.7,48.7 
				323.4,48.4 323.2,48.2 323,47.9 322.9,47.5 322.8,47.1 			"/>
		</g>
	</g>
	<g>
		<g>
			<polyline class="st7" points="324.4,47.9 324.1,47.9 324.1,46.3 324.8,46.3 324.8,46.3 324.9,46.3 325.1,46.3 325.2,46.3 
				325.3,46.4 325.3,46.5 325.4,46.5 325.4,46.6 325.4,46.7 325.4,46.7 325.4,46.8 325.4,46.9 325.4,47 325.3,47.1 325.2,47.1 
				325.1,47.2 325.1,47.2 325,47.2 325.4,47.9 325.1,47.9 324.7,47.2 324.4,47.2 324.4,47.9 			"/>
		</g>
	</g>
	<g>
		<g>
			<polyline class="st7" points="324.7,47.1 324.7,47.1 324.8,47 324.9,47 325,47 325.1,47 325.1,46.9 325.1,46.9 325.2,46.8 
				325.2,46.7 325.2,46.7 325.1,46.7 325.1,46.6 325.1,46.6 325.1,46.6 325,46.5 324.9,46.5 324.9,46.5 324.8,46.5 324.4,46.5 
				324.4,47.1 324.7,47.1 			"/>
		</g>
	</g>
	<g>
		<g>
			<polyline class="st7" points="324.7,48.7 324.7,48.7 325,48.6 325.3,48.5 325.6,48.4 325.8,48.2 325.9,48 326.1,47.7 326.1,47.4 
				326.2,47.1 326.2,47.1 326.1,46.8 326.1,46.5 325.9,46.3 325.8,46 325.6,45.8 325.3,45.7 325,45.6 324.7,45.6 324.7,45.6 
				324.4,45.6 324.1,45.7 323.9,45.8 323.6,46 323.5,46.3 323.4,46.5 323.3,46.8 323.2,47.1 323.2,47.1 323.3,47.4 323.4,47.7 
				323.5,48 323.6,48.2 323.9,48.4 324.1,48.5 324.4,48.6 324.7,48.7 			"/>
		</g>
	</g>
	<polygon class="st3" points="299.9,48.8 303.6,48.8 303.6,48.8 305,41.4 305,41.1 305.1,40.8 305.2,40.5 305.3,40.2 305.4,39.9 
		305.6,39.6 305.7,39.4 305.9,39.1 306.2,38.9 306.4,38.7 306.7,38.5 307.1,38.3 307.5,38.2 307.9,38.1 308.4,38 308.9,38 309.1,38 
		309.2,38 309.2,38 309.2,38 309.8,34.6 309.4,34.6 309.1,34.7 308.7,34.7 308.4,34.8 308.1,34.9 307.8,35.1 307.6,35.2 307.3,35.4 
		307.1,35.5 306.9,35.7 306.7,35.9 306.5,36.1 306.3,36.4 306.1,36.6 305.9,36.9 305.7,37.1 306.1,34.7 302.4,34.7 	"/>
	<g>
		<g>
			<polyline class="st7" points="299.9,48.8 303.6,48.8 303.6,48.8 305,41.4 305,41.4 305,41.1 305.1,40.8 305.2,40.5 305.3,40.2 
				305.4,39.9 305.6,39.6 305.7,39.4 305.9,39.1 306.2,38.9 306.4,38.7 306.7,38.5 307.1,38.3 307.5,38.2 307.9,38.1 308.4,38 
				308.9,38 308.9,38 309.1,38 309.2,38 309.2,38 309.2,38 309.8,34.6 309.8,34.6 309.4,34.6 309.1,34.7 308.7,34.7 308.4,34.8 
				308.1,34.9 307.8,35.1 307.6,35.2 307.3,35.4 307.1,35.5 306.9,35.7 306.7,35.9 306.5,36.1 306.3,36.4 306.1,36.6 305.9,36.9 
				305.7,37.1 306.1,34.7 302.4,34.7 299.9,48.8 299.9,48.8 			"/>
		</g>
	</g>
	<polygon class="st3" points="265,48.8 268.8,48.8 268.8,48.8 270.1,41.4 270.1,41.1 270.2,40.8 270.3,40.5 270.3,40.2 270.5,40 
		270.6,39.7 270.8,39.5 270.9,39.3 271.2,39.1 271.4,38.9 271.7,38.7 272,38.6 272.4,38.4 272.8,38.4 273.2,38.3 273.7,38.2 
		273.8,38.2 273.8,38.3 273.9,38.3 274,38.3 274,38.3 274.1,38.3 274.1,38.3 274.1,38.3 274.1,38.3 274.2,38.1 274.2,37.9 
		274.3,37.6 274.4,37.2 274.5,36.9 274.6,36.5 274.7,36.1 274.8,35.9 275,35.6 275.1,35.4 275.2,35.2 275.3,35 275.4,34.8 
		275.5,34.7 275.5,34.7 275.5,34.7 275.5,34.6 275.4,34.6 275.3,34.6 275.2,34.6 275.1,34.6 275,34.6 274.9,34.6 274.5,34.6 
		274.1,34.7 273.8,34.7 273.5,34.8 273.2,34.9 272.9,35 272.7,35.2 272.4,35.3 272.2,35.5 272,35.7 271.8,35.9 271.6,36.1 
		271.4,36.3 271.2,36.6 271,36.9 270.8,37.1 271.3,34.7 267.5,34.7 	"/>
	<g>
		<g>
			<polyline class="st7" points="265,48.8 268.8,48.8 268.8,48.8 270.1,41.4 270.1,41.4 270.1,41.1 270.2,40.8 270.3,40.5 
				270.3,40.2 270.5,40 270.6,39.7 270.8,39.5 270.9,39.3 271.2,39.1 271.4,38.9 271.7,38.7 272,38.6 272.4,38.4 272.8,38.4 
				273.2,38.3 273.7,38.2 273.7,38.2 273.8,38.2 273.8,38.3 273.9,38.3 274,38.3 274,38.3 274.1,38.3 274.1,38.3 274.1,38.3 
				274.1,38.3 274.1,38.3 274.2,38.1 274.2,37.9 274.3,37.6 274.4,37.2 274.5,36.9 274.6,36.5 274.7,36.1 274.7,36.1 274.8,35.9 
				275,35.6 275.1,35.4 275.2,35.2 275.3,35 275.4,34.8 275.5,34.7 275.5,34.7 275.5,34.7 275.5,34.7 275.5,34.6 275.4,34.6 
				275.3,34.6 275.2,34.6 275.1,34.6 275,34.6 274.9,34.6 274.9,34.6 274.5,34.6 274.1,34.7 273.8,34.7 273.5,34.8 273.2,34.9 
				272.9,35 272.7,35.2 272.4,35.3 272.2,35.5 272,35.7 271.8,35.9 271.6,36.1 271.4,36.3 271.2,36.6 271,36.9 270.8,37.1 
				271.3,34.7 267.5,34.7 265,48.8 265,48.8 			"/>
		</g>
	</g>
</g>
</svg>
